<svg id="OBJECTS" xmlns="http://www.w3.org/2000/svg" viewBox="0 0 110.12 109.12"><defs><style>.cls-1,.cls-3{fill:#38ceb5;}.cls-1,.cls-2{opacity:0.85;}.cls-2{fill:#9955f6;}.cls-3{opacity:0.9;}</style></defs><path class="cls-1" d="M117.28,292.2A18.37,18.37,0,0,0,98.69,274h0a18.39,18.39,0,0,0-18.17,18.59l.22,18.42-17.91.21c-9.9.11-18.32,7.82-18.68,17.7A18.39,18.39,0,0,0,62.73,348l55.29-.64Z" transform="translate(-44.14 -274.04)"/><path class="cls-2" d="M80.44,365a18.18,18.18,0,0,0,18.24,18.12h0a18.17,18.17,0,0,0,18.51-17.84l.14-18,17.9.13c9.9.07,18.46-7.3,19-17a18.17,18.17,0,0,0-18.21-19l-55.28-.41Z" transform="translate(-44.14 -274.04)"/><path class="cls-3" d="M110.43,326.78a5.93,5.93,0,0,0,.11-8.38h0a5.92,5.92,0,0,0-8.38-.1l-4.25,4.14-4-4.13a6,6,0,0,0-8.29-.42,5.93,5.93,0,0,0-.31,8.57l12.44,12.76Z" transform="translate(-44.14 -274.04)"/></svg>